<?xml version="1.0" encoding="UTF-8"?>
<svg version="1.1" xmlns="http://www.w3.org/2000/svg" width="512" height="512">
<path d="M0 0 C9.05816351 4.22940468 13.81135769 9.55059376 17.7421875 18.58984375 C19.24537812 23.14566763 19.6288514 27.67136278 19.61743164 32.44482422 C19.61735611 33.50547089 19.61728058 34.56611755 19.61720276 35.65890503 C19.61204147 36.78724762 19.60688019 37.91559021 19.6015625 39.078125 C19.59944008 40.82997604 19.59944008 40.82997604 19.59727478 42.61721802 C19.59169123 46.33598424 19.57914169 50.05468957 19.56640625 53.7734375 C19.56138913 56.2994783 19.55682659 58.82552004 19.55273438 61.3515625 C19.54172718 67.53387483 19.52500538 73.71615181 19.50390625 79.8984375 C20.12861816 80.1970166 20.75333008 80.4955957 21.39697266 80.80322266 C30.90622107 85.74626882 35.3820327 98.35161084 38.50390625 107.8984375 C39.80346394 107.90202003 39.80346394 107.90202003 41.12927532 107.90567493 C62.20274232 107.96479167 83.27609464 108.04032041 104.34943676 108.13415241 C114.54032038 108.1791323 124.73116887 108.21854191 134.92211914 108.24487305 C143.80377717 108.26783536 152.68532427 108.30121359 161.56689435 108.34713906 C166.27032803 108.37109512 170.97365169 108.38980827 175.677145 108.39605141 C180.10373323 108.40209148 184.53003984 108.42205225 188.9565239 108.45271301 C190.58147414 108.46151054 192.20646115 108.46521228 193.83143425 108.46344566 C196.05019576 108.46179504 198.26809662 108.4784729 200.48674011 108.49971008 C201.72839526 108.50431905 202.97005041 108.50892801 204.24933147 108.51367664 C207.81143856 108.93479444 209.66609341 109.74053819 212.50390625 111.8984375 C215.17227036 115.90098366 215.33793005 119.19157049 214.50390625 123.8984375 C212.3223148 126.65413197 210.63213131 128.33432497 207.50390625 129.8984375 C206.14638329 130.01548714 204.78364737 130.07520939 203.42138672 130.10375977 C202.5806662 130.12370499 201.73994568 130.14365021 200.87374878 130.16419983 C199.51118454 130.18926857 199.51118454 130.18926857 198.12109375 130.21484375 C197.19168976 130.23562485 196.26228577 130.25640594 195.30471802 130.27781677 C192.32952415 130.34331396 189.35424048 130.40219802 186.37890625 130.4609375 C184.36457397 130.50412256 182.35025084 130.54773684 180.3359375 130.59179688 C175.39201962 130.69899553 170.44801122 130.80026251 165.50390625 130.8984375 C166.10356201 132.41244141 166.10356201 132.41244141 166.71533203 133.95703125 C175.88490927 157.11253796 185.02224297 180.28062032 194.12890625 203.4609375 C194.59508362 204.64727783 195.06126099 205.83361816 195.54156494 207.0559082 C198.14483884 213.68142216 200.74475174 220.30823905 203.34143066 226.93634033 C204.45916589 229.78443486 205.58200725 232.6304661 206.70605469 235.47607422 C207.35490957 237.12594044 208.00367888 238.77584032 208.65234375 240.42578125 C208.94646149 241.16623184 209.24057922 241.90668243 209.54360962 242.66957092 C211.50390625 247.6716019 211.50390625 247.6716019 211.50390625 249.8984375 C212.73693481 249.85916138 212.73693481 249.85916138 213.99487305 249.8190918 C217.72685563 249.7150231 221.45853285 249.65007622 225.19140625 249.5859375 C227.13176758 249.5230957 227.13176758 249.5230957 229.11132812 249.45898438 C230.98208008 249.43481445 230.98208008 249.43481445 232.890625 249.41015625 C234.61091919 249.37088013 234.61091919 249.37088013 236.3659668 249.33081055 C240.52723771 250.08354959 241.96792898 251.56945769 244.50390625 254.8984375 C245.13500977 257.39941406 245.13500977 257.39941406 245.1328125 260.0390625 C245.14018433 261.50907715 245.14018433 261.50907715 245.14770508 263.00878906 C245.12087646 264.04487305 245.09404785 265.08095703 245.06640625 266.1484375 C245.05053467 267.21803711 245.03466309 268.28763672 245.01831055 269.38964844 C244.27867916 295.43872442 232.63686541 318.6155602 214.03515625 336.67578125 C193.42884809 354.76990061 167.64556674 362.4716982 140.50390625 360.8984375 C120.96938309 359.08757933 102.49993072 351.57333818 87.50390625 338.8984375 C86.69050781 338.23070312 85.87710937 337.56296875 85.0390625 336.875 C78.45897828 331.25810223 73.38710333 325.02094269 68.50390625 317.8984375 C67.67052734 316.69767578 67.67052734 316.69767578 66.8203125 315.47265625 C57.23152546 300.65362174 53.33935281 283.21052321 53.06640625 265.7734375 C53.03281006 264.42149292 53.03281006 264.42149292 52.99853516 263.04223633 C53.01370963 258.80736062 53.12393565 256.50857509 55.40625 252.84375 C58.81752227 249.68022376 61.02854751 249.73174363 65.60546875 249.58203125 C67.42304687 249.51918945 67.42304687 249.51918945 69.27734375 249.45507812 C70.54835938 249.41576172 71.819375 249.37644531 73.12890625 249.3359375 C75.04703125 249.27116211 75.04703125 249.27116211 77.00390625 249.20507812 C80.17045973 249.09873864 83.33709378 248.99670917 86.50390625 248.8984375 C86.7041893 248.38004807 86.90447235 247.86165863 87.11082458 247.32756042 C96.17649988 223.86722126 105.26183111 200.41494888 114.50390625 177.0234375 C114.82986786 176.19709808 115.15582947 175.37075867 115.4916687 174.51937866 C121.38068926 159.59745405 127.45072586 144.75624391 133.50390625 129.8984375 C101.82390625 129.8984375 70.14390625 129.8984375 37.50390625 129.8984375 C37.17390625 132.2084375 36.84390625 134.5184375 36.50390625 136.8984375 C33.5173995 144.81423048 28.42567434 154.93755345 20.50390625 158.8984375 C20.50390625 236.7784375 20.50390625 314.6584375 20.50390625 394.8984375 C24.46390625 396.8784375 28.42390625 398.8584375 32.50390625 400.8984375 C48.97465362 412.80500186 58.58496257 427.33600248 63.50390625 446.8984375 C63.50390625 447.8884375 63.50390625 448.8784375 63.50390625 449.8984375 C64.14303955 449.88796387 64.78217285 449.87749023 65.44067383 449.86669922 C68.3992096 449.82455255 71.35768186 449.79892805 74.31640625 449.7734375 C75.32123047 449.75667969 76.32605469 449.73992187 77.36132812 449.72265625 C90.08649907 449.64082235 100.13708134 451.84277335 110.69140625 459.0859375 C120.95441781 469.34894906 124.8004629 480.5701088 124.94140625 494.8984375 C124.95163818 495.71175537 124.96187012 496.52507324 124.97241211 497.36303711 C124.90338601 502.0051628 124.52127568 505.14979972 121.50390625 508.8984375 C118.36555011 510.99067493 117.65938912 511.14930507 114.08821297 511.15570641 C113.17964047 511.1621553 112.27106797 511.16860419 111.33496296 511.1752485 C110.33546553 511.1721513 109.3359681 511.1690541 108.30618286 511.16586304 C107.2454238 511.17039415 106.18466474 511.17492526 105.09176147 511.17959368 C101.51962675 511.19230431 97.94764319 511.19061302 94.37548828 511.18896484 C91.82161257 511.19494592 89.26773868 511.20175048 86.71386719 511.20932007 C80.4861657 511.22518844 74.25852005 511.2314303 68.03080024 511.23254482 C62.96940979 511.23349458 57.90803185 511.23760125 52.84664536 511.24394608 C38.50193438 511.26156271 24.15725336 511.2707843 9.81253149 511.26928513 C9.03892246 511.26920522 8.26531344 511.2691253 7.46826172 511.26904297 C6.30643404 511.26892033 6.30643404 511.26892033 5.1211351 511.26879521 C-7.43334227 511.2679822 -19.9876997 511.28712243 -32.54214238 511.3153197 C-45.42780147 511.3440329 -58.31340203 511.35786086 -71.19909394 511.35613215 C-78.4355139 511.3554677 -85.67180813 511.36098385 -92.90819931 511.38248825 C-99.71258021 511.40257897 -106.51665113 511.40204241 -113.32106018 511.38745499 C-115.82165539 511.38535721 -118.32226696 511.39012497 -120.82283401 511.4021759 C-124.23034004 511.41753687 -127.63691804 511.40838002 -131.04440308 511.39291382 C-132.03943907 511.40320094 -133.03447506 511.41348807 -134.05966365 511.42408693 C-138.36050367 511.38079749 -140.83219738 511.29440527 -144.58682442 509.05503273 C-149.43588113 503.57783137 -147.93539567 494.23102565 -147.66650391 487.28222656 C-146.92926157 476.96928362 -142.45083513 468.40906407 -135.49609375 460.8984375 C-124.36786308 451.27402179 -111.73750486 449.72152046 -97.55859375 449.8359375 C-95.96047852 449.84270508 -95.96047852 449.84270508 -94.33007812 449.84960938 C-91.71869084 449.86131963 -89.10742251 449.87772026 -86.49609375 449.8984375 C-86.37564697 449.17253418 -86.2552002 448.44663086 -86.13110352 447.69873047 C-83.27282671 431.13368583 -74.82148084 414.75178074 -60.86328125 404.72558594 C-55.3092438 400.90568247 -49.8133767 397.32645628 -43.49609375 394.8984375 C-43.33641068 364.93566939 -43.21252886 334.97291561 -43.13863644 305.00981369 C-43.12988148 301.47252483 -43.12082123 297.93523682 -43.11157227 294.39794922 C-43.10973609 293.693738 -43.10789992 292.98952677 -43.1060081 292.26397581 C-43.07554756 280.86094536 -43.02035505 269.45816191 -42.95602418 258.05527799 C-42.89056662 246.35511603 -42.85168303 234.65508344 -42.83747429 222.95474589 C-42.82833896 216.38260261 -42.80683146 209.81101956 -42.75598335 203.23905563 C-42.70852429 197.05510285 -42.6938023 190.87194185 -42.70433998 184.68782425 C-42.7024118 182.41659494 -42.68845532 180.14533958 -42.66165543 177.87426758 C-42.62687185 174.77501447 -42.63517908 171.67875833 -42.65431213 168.57943726 C-42.63392224 167.67865051 -42.61353235 166.77786376 -42.59252459 165.84978044 C-42.6659127 161.07068053 -42.6659127 161.07068053 -45.03661335 157.0643971 C-46.87223004 155.45298225 -46.87223004 155.45298225 -48.78844398 154.13532984 C-54.82571666 149.76238612 -58.42009939 140.85912448 -60.49609375 133.8984375 C-60.49609375 132.5784375 -60.49609375 131.2584375 -60.49609375 129.8984375 C-92.17609375 129.8984375 -123.85609375 129.8984375 -156.49609375 129.8984375 C-152.86609375 138.8084375 -149.23609375 147.7184375 -145.49609375 156.8984375 C-143.68600969 161.43503594 -141.88103525 165.97120917 -140.1015625 170.51953125 C-139.66609604 171.62841202 -139.23062958 172.73729279 -138.78196716 173.879776 C-137.41408195 177.36447559 -136.04872778 180.85015934 -134.68359375 184.3359375 C-133.7264935 186.77607844 -132.76929834 189.21618217 -131.81201172 191.65625 C-124.33527901 210.72215576 -116.89459685 229.80204035 -109.49609375 248.8984375 C-108.70436768 248.9077832 -107.9126416 248.91712891 -107.09692383 248.92675781 C-103.50018667 248.98053094 -99.90474023 249.06416713 -96.30859375 249.1484375 C-95.06271484 249.16261719 -93.81683594 249.17679688 -92.53320312 249.19140625 C-90.73012695 249.23974609 -90.73012695 249.23974609 -88.890625 249.2890625 C-87.78565674 249.31000977 -86.68068848 249.33095703 -85.54223633 249.35253906 C-81.85542078 250.01325234 -80.16642031 251.32185421 -77.49609375 253.8984375 C-71.46228472 265.96605555 -77.84152443 286.31123639 -81.59375 298.44921875 C-90.51801449 323.70942502 -109.94076247 341.94478402 -133.59375 353.3984375 C-156.22433347 363.41671951 -183.12675759 363.642262 -206.3359375 355.24609375 C-217.85905945 350.33203062 -228.26521514 344.45933298 -237.49609375 335.8984375 C-238.69492188 334.80208984 -238.69492188 334.80208984 -239.91796875 333.68359375 C-256.11956426 318.21596313 -266.91156114 295.15943819 -267.8671875 272.75 C-267.8998193 270.67461766 -267.92190385 268.59904345 -267.93359375 266.5234375 C-267.96646484 265.47027344 -267.99933594 264.41710937 -268.03320312 263.33203125 C-268.04029297 262.31496094 -268.04738281 261.29789062 -268.0546875 260.25 C-268.06814209 259.34072754 -268.08159668 258.43145508 -268.09545898 257.49462891 C-267.22044722 253.70445575 -265.55596548 252.23291979 -262.49609375 249.8984375 C-259.3581543 249.33081055 -259.3581543 249.33081055 -255.8828125 249.41015625 C-254.63564453 249.42626953 -253.38847656 249.44238281 -252.10351562 249.45898438 C-250.80994141 249.50087891 -249.51636719 249.54277344 -248.18359375 249.5859375 C-246.21422852 249.61977539 -246.21422852 249.61977539 -244.20507812 249.65429688 C-240.96759245 249.71316025 -237.73242375 249.79534946 -234.49609375 249.8984375 C-234.15191406 248.63257813 -233.80773437 247.36671875 -233.453125 246.0625 C-231.18422373 238.52232086 -228.18331042 231.26684642 -225.25985718 223.96261597 C-223.37190616 219.24533477 -221.49786683 214.52251795 -219.62109375 209.80078125 C-219.21795456 208.78776443 -218.81481537 207.77474762 -218.39945984 206.73103333 C-213.36421256 194.0708034 -208.39184229 181.38586178 -203.41580582 168.70227814 C-201.75290906 164.46370856 -200.08963062 160.22528892 -198.42590332 155.98704529 C-197.57336012 153.81518776 -196.72112222 151.64321036 -195.8692627 149.47108459 C-193.4355297 143.2704835 -190.9784598 137.07973241 -188.49609375 130.8984375 C-190.35741943 130.88441895 -190.35741943 130.88441895 -192.25634766 130.87011719 C-196.87487241 130.83014467 -201.49273613 130.76436543 -206.11083984 130.69091797 C-208.106847 130.66275047 -210.10296481 130.64151498 -212.09912109 130.62744141 C-214.97420739 130.60595347 -217.84796904 130.55927324 -220.72265625 130.5078125 C-221.61038727 130.50658386 -222.49811829 130.50535522 -223.41275024 130.50408936 C-229.03698488 130.37212867 -232.17511571 129.57656141 -236.49609375 125.8984375 C-238.22616943 122.43828615 -237.97962105 118.68171195 -237.49609375 114.8984375 C-235.38217498 111.39953746 -234.37873316 110.19265064 -230.49609375 108.8984375 C-228.23898871 108.79440423 -225.97890751 108.75194358 -223.71943665 108.74021912 C-223.02675302 108.73528114 -222.3340694 108.73034316 -221.62039536 108.72525555 C-219.29421458 108.70987045 -216.96806142 108.7015172 -214.6418457 108.69311523 C-212.97639726 108.6835375 -211.31095125 108.67352749 -209.64550781 108.66311646 C-205.11898589 108.63604993 -200.59245352 108.61504982 -196.06589532 108.59511447 C-191.3373017 108.5732657 -186.60874034 108.54587159 -181.88017273 108.51905823 C-172.92359215 108.46911633 -163.96699367 108.42418305 -155.01037806 108.38103586 C-144.81459244 108.33167628 -134.61883918 108.27675341 -124.42308486 108.22135627 C-103.4474513 108.10751325 -82.47178685 108.00067925 -61.49609375 107.8984375 C-61.15949234 107.00101334 -60.82289093 106.10358917 -60.47608948 105.17897034 C-60.03095505 104.0043071 -59.58582062 102.82964386 -59.12719727 101.61938477 C-58.68747086 100.4538356 -58.24774445 99.28828644 -57.79469299 98.0874176 C-56.33518486 94.50329231 -54.79795854 91.87717809 -52.43359375 88.8359375 C-51.45712891 87.55009766 -51.45712891 87.55009766 -50.4609375 86.23828125 C-48.56686055 83.98271049 -46.68578519 81.86961503 -44.49609375 79.8984375 C-43.83609375 79.8984375 -43.17609375 79.8984375 -42.49609375 79.8984375 C-42.50053497 79.25443497 -42.5049762 78.61043243 -42.509552 77.94691467 C-42.5539687 71.21422556 -42.58403609 64.48157843 -42.60595703 57.7487793 C-42.61598386 55.2396475 -42.6296087 52.7305273 -42.64697266 50.22143555 C-42.67136693 46.60462574 -42.68261036 42.98797112 -42.69140625 39.37109375 C-42.70172882 38.25823502 -42.71205139 37.14537628 -42.72268677 35.99879456 C-42.72422532 25.19853016 -41.2104226 16.61372528 -34.49609375 7.8984375 C-25.08959207 -1.18370205 -12.40938472 -3.90999608 0 0 Z M-20.49609375 24.8984375 C-21.40326211 27.68242993 -21.61862144 30.19946715 -21.60961914 33.11621094 C-21.60954361 33.93675964 -21.60946808 34.75730835 -21.60939026 35.60272217 C-21.60422897 36.47890198 -21.59906769 37.35508179 -21.59375 38.2578125 C-21.59233505 39.16219055 -21.5909201 40.0665686 -21.58946228 40.99835205 C-21.58387286 43.88174777 -21.57132228 46.76506532 -21.55859375 49.6484375 C-21.55357738 51.60546763 -21.54901471 53.56249897 -21.54492188 55.51953125 C-21.53475855 60.31255421 -21.51518103 65.10540854 -21.49609375 69.8984375 C-14.89609375 69.8984375 -8.29609375 69.8984375 -1.49609375 69.8984375 C-1.4270362 64.18712253 -1.36735869 58.47726971 -1.33129883 52.76586914 C-1.31625884 50.82506386 -1.29582161 48.8842923 -1.26977539 46.94360352 C-1.2331808 44.14591118 -1.21631927 41.34867017 -1.203125 38.55078125 C-1.18764114 37.6900853 -1.17215729 36.82938934 -1.15620422 35.94261169 C-1.15470127 30.50154015 -1.8483901 26.69156724 -4.49609375 21.8984375 C-10.84951573 17.66282285 -16.08450876 19.01632418 -20.49609375 24.8984375 Z M-34.49609375 99.8984375 C-39.80740835 107.51226348 -42.30405032 115.04812421 -41.10546875 124.30859375 C-39.18117227 132.48685378 -34.65462302 139.96809855 -27.62109375 144.5859375 C-19.74377246 149.17382792 -11.6597783 150.49547061 -2.70703125 148.17578125 C6.82041309 144.62097951 12.04257881 138.89015318 16.50390625 129.8984375 C19.59052606 122.41444152 18.82791233 114.61999848 15.81640625 107.2109375 C11.88058459 99.24089864 6.64230083 94.47933112 -1.49609375 90.8984375 C-13.269794 87.14138274 -26.40206489 90.58617471 -34.49609375 99.8984375 Z M-172.49609375 148.8984375 C-180.67577252 168.617924 -188.46772757 188.48651077 -196.23730469 208.37036133 C-196.65096283 209.42847519 -197.06462097 210.48658905 -197.49081421 211.57676697 C-198.30804366 213.66755082 -199.12464352 215.75858088 -199.94058228 217.84986877 C-201.89450193 222.84838889 -203.86854164 227.83711258 -205.88916016 232.80908203 C-206.26398026 233.7335463 -206.63880035 234.65801056 -207.02497864 235.61048889 C-207.7290727 237.34206669 -208.43755343 239.07186963 -209.15116882 240.79954529 C-209.46133438 241.56251419 -209.77149994 242.32548309 -210.09106445 243.11157227 C-210.36376663 243.77423599 -210.63646881 244.43689972 -210.91743469 245.11964417 C-211.65077005 247.06215311 -211.65077005 247.06215311 -211.49609375 249.8984375 C-185.42609375 249.8984375 -159.35609375 249.8984375 -132.49609375 249.8984375 C-134.79484892 242.08088669 -134.79484892 242.08088669 -137.52636719 234.50097656 C-138.08480568 233.09254234 -138.08480568 233.09254234 -138.65452576 231.65565491 C-139.05083694 230.66842941 -139.44714813 229.68120392 -139.85546875 228.6640625 C-140.27727921 227.60332016 -140.69908966 226.54257782 -141.13368225 225.44969177 C-142.50066044 222.01440228 -143.87336723 218.58143349 -145.24609375 215.1484375 C-146.19015142 212.77858256 -147.13375155 210.40854531 -148.0769043 208.03833008 C-149.9740689 203.27120373 -151.8729531 198.50476798 -153.77294922 193.73876953 C-157.64090308 184.03013208 -161.47597179 174.30856317 -165.30859375 164.5859375 C-165.94818744 162.96449663 -166.58783405 161.34307664 -167.22753906 159.72167969 C-168.65081779 156.11410061 -170.07362999 152.50633799 -171.49609375 148.8984375 C-171.82609375 148.8984375 -172.15609375 148.8984375 -172.49609375 148.8984375 Z M148.50390625 148.8984375 C148.14710533 149.80756645 148.14710533 149.80756645 147.78309631 150.73506165 C145.45980284 156.65452801 143.13599057 162.57379048 140.81167126 168.49285412 C139.56455677 171.66875461 138.3175935 174.84471429 137.07098389 178.02081299 C131.82107506 191.39599438 126.56432708 204.76823617 121.2578125 218.12109375 C120.85899368 219.12556046 120.46017487 220.13002716 120.04927063 221.16493225 C118.18158276 225.86853079 116.31060026 230.57076682 114.43383789 235.27075195 C113.77215154 236.93565136 113.11060311 238.6006056 112.44921875 240.265625 C112.14718033 241.01816055 111.84514191 241.77069611 111.53395081 242.54603577 C110.02579059 246.11210852 110.02579059 246.11210852 109.50390625 249.8984375 C135.57390625 249.8984375 161.64390625 249.8984375 188.50390625 249.8984375 C187.82892402 246.52352636 187.25892064 243.9684579 186.03955078 240.86987305 C185.7398941 240.10251328 185.44023743 239.3351535 185.13150024 238.54454041 C184.80322235 237.71644363 184.47494446 236.88834686 184.13671875 236.03515625 C183.78983002 235.15046158 183.44294128 234.26576691 183.08554077 233.35426331 C181.93754545 230.42981049 180.78344636 227.50781209 179.62890625 224.5859375 C178.82722254 222.54990366 178.02579414 220.51376928 177.22460938 218.47753906 C175.53399696 214.18312301 173.84054493 209.88983933 172.14550781 205.59716797 C169.91625738 199.94891257 167.69808326 194.29637853 165.48336792 188.64241028 C163.7473836 184.21277455 162.00677267 179.78496672 160.26507568 175.35757446 C159.4247728 173.21936293 158.58610671 171.08050742 157.74908447 168.94100952 C156.57857327 165.95087908 155.40147065 162.96342742 154.22265625 159.9765625 C153.87447845 159.08288467 153.52630066 158.18920685 153.16757202 157.26844788 C152.84479279 156.45444016 152.52201355 155.64043243 152.18945312 154.80175781 C151.77125305 153.73746552 151.77125305 153.73746552 151.34460449 152.65167236 C150.52923041 150.70252182 150.52923041 150.70252182 148.50390625 148.8984375 Z M-21.49609375 168.8984375 C-21.50489311 173.35763702 -21.50489311 173.35763702 -21.51387024 177.90692139 C-21.56902327 205.15584884 -21.63896622 232.40471087 -21.72508003 259.65355651 C-21.73634846 263.22346441 -21.74748687 266.7933727 -21.75854492 270.36328125 C-21.76074861 271.07399832 -21.76295229 271.7847154 -21.76522275 272.51696935 C-21.80061394 284.03113931 -21.82546777 295.5453092 -21.84644077 307.05951342 C-21.86818834 318.87046595 -21.90122877 330.68134778 -21.94479531 342.49224019 C-21.96894657 349.12779412 -21.98747426 355.76328907 -21.99370766 362.39888763 C-21.99973494 368.64017115 -22.01964925 374.88125389 -22.05036926 381.12246323 C-22.05918738 383.41705051 -22.06286432 385.711664 -22.06110191 388.00626755 C-22.0594588 391.13175264 -22.07606629 394.2566186 -22.09736633 397.38201904 C-22.09251876 398.29641337 -22.08767118 399.2108077 -22.08267671 400.15291095 C-22.15164712 406.25758373 -22.15164712 406.25758373 -23.84913921 409.41582108 C-26.17815942 411.51244459 -28.52992202 412.23053218 -31.49609375 413.2109375 C-46.53037178 418.71291467 -56.07914014 427.44858658 -63.0390625 441.85546875 C-65.16721803 447.14583657 -65.82678202 452.76455298 -66.34692383 458.41357422 C-66.42966553 459.18330566 -66.51240723 459.95303711 -66.59765625 460.74609375 C-66.65260254 461.42679932 -66.70754883 462.10750488 -66.76416016 462.80883789 C-67.9490296 466.19152553 -69.67151509 467.72652621 -72.49609375 469.8984375 C-75.45581471 470.37035076 -77.84749756 470.55189153 -80.796875 470.5 C-81.9896833 470.51200943 -81.9896833 470.51200943 -83.20658875 470.52426147 C-85.74111225 470.5472731 -88.27402824 470.53790282 -90.80859375 470.5234375 C-93.33214774 470.51957258 -95.85498811 470.52319152 -98.37846375 470.54403687 C-99.94451235 470.55599272 -101.51076172 470.55367992 -103.07673645 470.53433228 C-109.25976679 470.56555123 -114.85304772 471.69743401 -119.73828125 475.765625 C-123.82510677 480.7910516 -126.49609375 484.21176525 -126.49609375 490.8984375 C-50.59609375 490.8984375 25.30390625 490.8984375 103.50390625 490.8984375 C102.4076092 483.22435812 101.08646164 480.36870787 95.62890625 475.1484375 C89.92140898 471.03903947 84.78343702 470.62338686 78 470.66015625 C76.35611145 470.64474625 74.71223106 470.62844334 73.06835938 470.61132812 C70.49859465 470.59484739 67.92943266 470.58597034 65.35961914 470.59301758 C62.86406328 470.59563871 60.37031409 470.56752866 57.875 470.53515625 C57.11029892 470.54536301 56.34559784 470.55556976 55.557724 470.56608582 C51.6035285 470.49376257 49.70594601 470.05371203 46.53686523 467.61816406 C44.60334299 465.03146563 43.85845785 463.88026517 43.60546875 460.74609375 C43.52272705 459.9763623 43.43998535 459.20663086 43.35473633 458.41357422 C43.2802124 457.6042041 43.20568848 456.79483398 43.12890625 455.9609375 C41.48966306 442.97892801 36.50062975 431.73152122 26.50390625 422.8984375 C19.93866006 417.83323191 13.10157453 414.73059949 5.25390625 412.13671875 C2.01395527 410.67782037 1.18104762 410.01881169 -0.49609375 406.8984375 C-0.94946376 403.72865174 -0.91177251 400.57953765 -0.89482117 397.38201904 C-0.90146799 396.40671588 -0.90811482 395.43141272 -0.91496307 394.42655492 C-0.93365491 391.14982456 -0.93098358 387.87345737 -0.9284668 384.59667969 C-0.93748016 382.25128664 -0.94780632 379.90589832 -0.95935059 377.56051636 C-0.98699656 371.18491116 -0.99621544 364.80939515 -1.00220466 358.43373775 C-1.01062027 352.44836299 -1.03274518 346.46304574 -1.05482314 340.47770944 C-1.09810563 328.62252696 -1.12806401 316.76734973 -1.1496582 304.91210938 C-1.17066352 293.39580708 -1.19793469 281.87954775 -1.23364258 270.36328125 C-1.2358414 269.6534272 -1.23804023 268.94357314 -1.24030568 268.21220836 C-1.25137522 264.65108161 -1.26256805 261.08995527 -1.27382219 257.5288291 C-1.36702797 227.98540499 -1.43779538 198.4419513 -1.49609375 168.8984375 C-8.09609375 168.8984375 -14.69609375 168.8984375 -21.49609375 168.8984375 Z M-246.49609375 269.8984375 C-246.49609375 289.24695444 -237.36984108 305.58236825 -224.19140625 319.296875 C-208.9521627 333.93654176 -189.43836886 340.31535647 -168.53125 340.109375 C-151.88982629 339.45991447 -137.31890364 333.29531039 -124.49609375 322.8984375 C-123.77808594 322.34414063 -123.06007813 321.78984375 -122.3203125 321.21875 C-108.20686515 309.76356361 -100.64733922 292.41623067 -97.49609375 274.8984375 C-97.49609375 273.2484375 -97.49609375 271.5984375 -97.49609375 269.8984375 C-146.66609375 269.8984375 -195.83609375 269.8984375 -246.49609375 269.8984375 Z M74.50390625 269.8984375 C76.41932072 290.96799665 84.57108746 308.34815279 100.390625 322.4765625 C116.8865242 335.42661421 135.51826382 341.31576847 156.50390625 339.8984375 C177.27489672 337.24726585 195.16896376 327.42452129 208.60546875 311.390625 C217.57023524 299.10849999 223.50390625 285.19898954 223.50390625 269.8984375 C174.33390625 269.8984375 125.16390625 269.8984375 74.50390625 269.8984375 Z " fill="#000000" transform="translate(267.49609375,1.1015625)"/>
</svg>
