<?xml version="1.0" encoding="UTF-8"?>
<svg version="1.1" xmlns="http://www.w3.org/2000/svg" width="512" height="512">
<path d="M0 0 C10.45219322 7.63342754 17.6287516 17.66336657 20.45703125 30.390625 C21.30144795 36.09947866 21.59665805 41.61183224 21.57055664 47.37695312 C21.57070267 48.23643555 21.57084869 49.09591797 21.57099915 49.98144531 C21.57030787 52.79494842 21.56255255 55.60838359 21.5546875 58.421875 C21.55282053 60.38342248 21.55139794 62.34497044 21.55039978 64.30651855 C21.54659659 69.44882513 21.53678522 74.5911031 21.5256958 79.73339844 C21.51543427 84.98892836 21.51089203 90.24446293 21.50585938 95.5 C21.49516085 105.79688751 21.47811102 116.09375387 21.45703125 126.390625 C21.98830627 126.11610504 22.5195813 125.84158508 23.06695557 125.55874634 C23.77350281 125.19856415 24.48005005 124.83838196 25.20800781 124.46728516 C25.90428284 124.1102652 26.60055786 123.75324524 27.31793213 123.38540649 C37.35541832 118.71750429 50.52678849 118.80631954 60.95703125 122.015625 C73.02079203 126.72906159 82.21046089 135.09874781 88.45703125 146.390625 C91.51706336 145.24311296 94.38547057 143.91513834 97.26953125 142.390625 C107.88006806 137.12465488 119.83874564 136.79602065 131.20703125 139.953125 C143.65782734 144.32236142 153.33642474 151.8513447 159.33203125 163.703125 C160.04967701 165.26136982 160.75877043 166.82359782 161.45703125 168.390625 C162.11731514 169.72713067 162.78186254 171.06157668 163.45703125 172.390625 C164.06289063 172.05289063 164.66875 171.71515625 165.29296875 171.3671875 C177.67411553 164.77660783 190.07825177 163.64085677 203.61328125 167.42578125 C214.78234599 171.21528536 224.56509028 179.13869557 230.10816097 189.61498356 C235.01171647 199.70528808 236.03680987 209.08217856 235.95874023 220.13891602 C235.96253244 221.68619781 235.96803986 223.23347619 235.97511292 224.78074646 C235.9889756 228.95074689 235.97795928 233.12033036 235.9614017 237.29030728 C235.94744106 241.68295611 235.95402437 246.07558339 235.95753479 250.46824646 C235.96023027 257.84942242 235.94682537 265.23043518 235.92358398 272.61157227 C235.89704761 281.09686698 235.89520766 289.58188785 235.90697235 298.06720978 C235.91782867 306.28020768 235.91149756 314.4931083 235.89741707 322.70609856 C235.89171789 326.17648609 235.89169153 329.646801 235.89648247 333.11718941 C235.93222467 367.85633692 235.93222467 367.85633692 232.45703125 383.390625 C232.1017485 384.99045479 232.1017485 384.99045479 231.73928833 386.62260437 C231.15887813 389.09595556 230.49537053 391.51884596 229.76953125 393.953125 C229.51606934 394.81752197 229.26260742 395.68191895 229.00146484 396.57250977 C221.66336631 420.64032845 208.67342908 441.19043301 191.45703125 459.390625 C190.22919922 460.71513672 190.22919922 460.71513672 188.9765625 462.06640625 C164.65980186 487.46071906 127.74256599 504.64171191 92.47200012 505.65458679 C88.9040405 505.71746786 85.337914 505.72115886 81.76953125 505.703125 C80.64576584 505.70039078 80.64576584 505.70039078 79.4992981 505.69760132 C68.23090557 505.65146188 57.42376634 505.13507535 46.45703125 502.390625 C45.77012207 502.22433594 45.08321289 502.05804688 44.37548828 501.88671875 C9.10254834 493.16738363 -16.3687685 471.73450982 -41.4609375 446.60546875 C-43.08882832 444.97825289 -44.71686745 443.35118539 -46.345047 441.72425842 C-49.74134168 438.32943082 -53.13583957 434.93281968 -56.52905273 431.53491211 C-60.86291387 427.19534517 -65.20126208 422.86029619 -69.54096508 418.52657223 C-72.89805975 415.17310217 -76.25275541 411.81724035 -79.60674477 408.46066475 C-81.20508906 406.86165692 -82.80416671 405.26338176 -84.40401268 403.66587639 C-86.64311804 401.4293299 -88.87896047 399.18956962 -91.11401367 396.94897461 C-91.76509094 396.29992157 -92.41616821 395.65086853 -93.0869751 394.98214722 C-96.16288169 391.89220169 -99.12920607 388.75685716 -101.97589111 385.45373535 C-105.79749564 381.03413686 -109.89268927 376.92960426 -114.04516602 372.82250977 C-114.86560394 372.00674469 -115.68604187 371.19097961 -116.53134155 370.35049438 C-118.30027936 368.59200011 -120.07031368 366.83460829 -121.84134102 365.07821846 C-124.64848727 362.29322768 -127.45169022 359.50430609 -130.25340271 356.71385193 C-138.21560206 348.78489083 -146.18203817 340.86022084 -154.15893555 332.94604492 C-158.57668732 328.5629445 -162.98895526 324.17439949 -167.39532894 319.77985996 C-169.7197531 317.46216542 -172.04773182 315.14823154 -174.3808918 312.83932686 C-176.98430781 310.26251541 -179.57817294 307.67642923 -182.17016602 305.08813477 C-182.93240982 304.33824783 -183.69465363 303.5883609 -184.47999573 302.81575012 C-192.59932333 294.66593149 -198.71575651 286.62706884 -199.04296875 274.765625 C-198.8759604 265.96057363 -196.15425325 259.48853648 -190.33984375 252.890625 C-176.98720714 240.14101069 -160.26344867 233.91345366 -141.90234375 234.1875 C-122.72566973 235.34701982 -108.85878088 243.11474035 -95.54296875 256.390625 C-94.15891207 257.61242992 -92.76440535 258.82259617 -91.35546875 260.015625 C-87.61522357 263.24937865 -84.16300968 266.7323379 -80.71875 270.27734375 C-78.44180675 272.48888109 -76.03204306 274.4238887 -73.54296875 276.390625 C-73.54150219 275.1390221 -73.54003563 273.8874192 -73.53852463 272.59788895 C-73.502785 242.85477382 -73.44648961 213.11177453 -73.3650478 183.36875273 C-73.35503093 179.70400613 -73.3451867 176.03925908 -73.33544922 172.37451172 C-73.33253716 171.28018238 -73.33253716 171.28018238 -73.32956627 170.16374537 C-73.2985864 158.36721263 -73.28157685 146.57069933 -73.26977453 134.77413359 C-73.25734212 122.66028745 -73.22979373 110.54654292 -73.18835568 98.43276095 C-73.16552403 91.63260656 -73.14956351 84.83258322 -73.1510849 78.03238678 C-73.1518317 71.62688044 -73.13387182 65.22169431 -73.10180092 58.81627083 C-73.09330881 56.47021762 -73.09154727 54.12412848 -73.09716606 51.77806664 C-73.13401384 34.02244706 -71.85585963 20.03551353 -59.546875 6.13671875 C-43.79151964 -9.09827625 -18.44362532 -11.67246333 0 0 Z M-47.16796875 26.9140625 C-50.85996664 33.56385415 -50.82994471 40.05943727 -50.80125427 47.48696899 C-50.80492998 48.59606483 -50.80860568 49.70516066 -50.81239277 50.84786546 C-50.82236304 54.55959398 -50.81822388 58.27117241 -50.81420898 61.98291016 C-50.81859648 64.645753 -50.82378837 67.3085824 -50.83004761 69.97142029 C-50.84207496 75.7029535 -50.84719959 81.43445894 -50.847929 87.16600418 C-50.84925613 95.45824363 -50.86438025 103.75041578 -50.88342417 112.04263143 C-50.91424432 125.50432409 -50.93842108 138.96601845 -50.95629883 152.42773438 C-50.95737151 153.23292092 -50.95844419 154.03810746 -50.95954937 154.86769359 C-50.97137476 163.85513325 -50.9815804 172.84257359 -50.98999023 181.83001709 C-50.99306435 185.09143068 -50.9961531 188.35284426 -50.99926758 191.61425781 C-51.00003292 192.41906753 -51.00079826 193.22387726 -51.00158679 194.05307515 C-51.01466356 207.46772647 -51.03929384 220.8823289 -51.07301098 234.29694402 C-51.09330679 242.56978302 -51.10358958 250.8425175 -51.10102177 259.11538158 C-51.0999875 264.78086622 -51.10961065 270.44626814 -51.1276608 276.11172391 C-51.13771432 279.3812407 -51.141191 282.65053693 -51.13489342 285.92006874 C-51.12878329 289.46298384 -51.14092762 293.00537859 -51.15769958 296.54824829 C-51.15148777 297.58335623 -51.14527595 298.61846418 -51.1388759 299.68493903 C-51.21487769 308.46190247 -51.21487769 308.46190247 -54.54296875 312.390625 C-58.70191326 314.9322022 -61.88844651 314.37341265 -66.54296875 313.390625 C-74.11580024 308.80137524 -80.37020963 301.69726785 -86.54980469 295.41650391 C-90.13162013 291.77627854 -93.7877656 288.32839825 -97.6875 285.02734375 C-99.90460459 283.07162412 -101.96672787 280.9950661 -104.04296875 278.890625 C-108.04803969 274.84433549 -112.1668129 271.03158667 -116.54296875 267.390625 C-117.47882813 266.58625 -117.47882813 266.58625 -118.43359375 265.765625 C-128.09957859 257.90710074 -138.4532003 256.27605977 -150.5703125 257.16308594 C-160.03435901 258.25473091 -168.38052245 263.42639043 -175.16796875 269.890625 C-177.02247522 273.26245494 -176.56540979 274.71213723 -175.54296875 278.390625 C-173.98633125 280.48603621 -172.51790008 282.20396037 -170.70043945 284.04174805 C-170.17474271 284.59164996 -169.64904596 285.14155188 -169.10741901 285.70811749 C-167.26843948 287.61840105 -165.40812543 289.50589976 -163.54296875 291.390625 C-162.84852535 292.09580387 -162.15408195 292.80098274 -161.43859482 293.52753067 C-156.56750312 298.46557492 -151.66270772 303.36914672 -146.74651146 308.26224709 C-143.96457333 311.03124665 -141.18584559 313.80344521 -138.40803528 316.57658386 C-132.5185183 322.45511386 -126.62472077 328.3293433 -120.73046875 334.203125 C-113.87619879 341.03364137 -107.02367637 347.86589365 -100.17531776 354.70233727 C-97.44821295 357.42299841 -94.71809731 360.14061281 -91.98783875 362.85810852 C-90.3083943 364.5339189 -88.62909096 366.2098707 -86.94995117 367.88598633 C-86.19915787 368.63161331 -85.44836456 369.3772403 -84.67481995 370.14546204 C-80.69319805 374.12668719 -76.90845385 378.20731796 -73.23190975 382.47094631 C-70.48677957 385.59110734 -67.56765508 388.52976145 -64.63647461 391.47412109 C-63.98494415 392.13222275 -63.3334137 392.7903244 -62.66213989 393.46836853 C-60.53022859 395.6197985 -58.39448961 397.76736611 -56.2578125 399.9140625 C-55.15178271 401.02620558 -55.15178271 401.02620558 -54.02340889 402.16081619 C-50.11988737 406.0851073 -46.21315999 410.00617549 -42.30395508 413.92480469 C-38.30042515 417.9393801 -34.30871483 421.96549623 -30.3195715 425.99435997 C-27.21960692 429.12065837 -24.11060842 432.23785798 -20.99923897 435.35280228 C-19.52530515 436.83155867 -18.05470478 438.31364649 -16.58775139 439.79932785 C8.88118472 465.57309863 40.46371755 483.19219115 77.45361328 483.63208008 C115.10274238 483.72730479 147.85721454 470.66793253 174.95703125 444.265625 C201.73354282 417.42586805 213.59043003 382.08337609 213.61816406 344.7421875 C213.62280098 343.27764768 213.6278268 341.81310905 213.63320923 340.34857178 C213.64624468 336.39408151 213.65275987 332.43960815 213.65721989 328.48509979 C213.66016291 326.01002276 213.6642698 323.53495023 213.66872406 321.05987549 C213.68237104 313.30233217 213.69205329 305.54479928 213.69592595 297.7872448 C213.70041034 288.85609853 213.71798765 279.92510503 213.74692655 270.9940052 C213.76857369 264.07144422 213.77863173 257.14892616 213.77996707 250.22633171 C213.78101223 246.09966 213.7868593 241.97313244 213.80478668 237.84649658 C213.82132172 233.9656448 213.82339673 230.08504479 213.81464767 226.20417023 C213.8138804 224.78566053 213.81817894 223.36713697 213.82810593 221.9486618 C213.90049892 210.95410826 213.17961479 202.32415013 205.4140625 194.1171875 C200.49023175 189.77320908 195.03492443 187.62142827 188.45703125 187.390625 C179.35568784 188.42849749 173.98756016 192.50305454 167.97265625 199.1953125 C164.49778036 204.22850903 164.16622197 209.47341042 164.1484375 215.421875 C164.1232871 216.970056 164.09788895 218.518233 164.07226562 220.06640625 C164.04352314 222.48224934 164.01947386 224.89802321 164.00073242 227.31396484 C163.97899737 229.66278363 163.93956939 232.01082724 163.8984375 234.359375 C163.89832169 235.07516724 163.89820587 235.79095947 163.89808655 236.52844238 C163.80658438 241.19937083 162.89431905 244.40910716 160.45703125 248.390625 C157.10832139 251.02175418 153.57715061 250.75203898 149.45703125 250.390625 C146.31515897 249.0640567 144.87670222 248.22352189 143.33528137 245.16435242 C142.34217986 242.02789639 142.21216848 239.48669164 142.2175293 236.19848633 C142.21379807 234.96983353 142.21006683 233.74118073 142.20622253 232.47529602 C142.2085256 231.82354212 142.21082867 231.17178822 142.21320152 230.50028419 C142.2188316 228.44283574 142.20957481 226.38594348 142.19599915 224.32853699 C142.15903751 218.48128809 142.14027295 212.63422792 142.15161133 206.78686523 C142.15750737 203.20165343 142.13898537 199.61722355 142.10572243 196.03217125 C142.0940351 194.02170042 142.10902432 192.01113049 142.12467957 190.00068665 C142.03168088 181.22518337 140.72015425 174.21834207 134.77787781 167.48908997 C129.78812179 162.61013448 123.80914514 160.81725768 117.01953125 159.953125 C109.64806151 160.85839321 102.95340114 163.51825777 98.04101562 169.25170898 C90.43758553 179.51891784 91.91983601 192.65368129 91.95703125 204.765625 C91.96908401 208.7322508 91.95541903 212.69755321 91.92578125 216.6640625 C91.93710083 217.56619476 91.94842041 218.46832703 91.96008301 219.39779663 C91.9263334 223.58699197 91.81482734 225.81274255 89.56420898 229.44775391 C86.6023766 232.17863818 84.54164673 232.30049974 80.64453125 232.53125 C77.55516953 232.33264817 75.79941063 231.37809842 73.45703125 229.390625 C71.14726924 225.92598198 71.20215522 224.58812109 71.18579102 220.50146484 C71.17051109 218.68344864 71.17051109 218.68344864 71.15492249 216.82870483 C71.15278244 215.51624786 71.1506424 214.20379089 71.1484375 212.8515625 C71.13733299 211.48734462 71.12493849 210.12313668 71.11131287 208.75894165 C71.05600489 202.97073422 71.02535982 197.18245347 71.00073242 191.39404297 C70.98474804 187.85018692 70.95440818 184.30666876 70.91596794 180.76298904 C70.89881831 178.77079905 70.89826399 176.77848817 70.89808655 174.78622437 C70.78858976 164.68168381 69.66351573 156.68692445 62.5390625 149.1875 C57.03575194 144.43792616 50.95975889 141.53916388 43.609375 142.04296875 C36.25124166 143.23148757 30.18446558 146.53099001 25.45703125 152.390625 C21.82567949 158.80618042 20.87681245 164.35572183 20.91796875 171.6484375 C20.90617584 172.59572723 20.89438293 173.54301697 20.88223267 174.51901245 C20.84721743 177.51805375 20.83782779 180.51639672 20.83203125 183.515625 C20.81562788 186.52178421 20.79348127 189.52763764 20.76040649 192.53366089 C20.74094805 194.39566173 20.73142278 196.2578022 20.73348999 198.11990356 C20.69162224 203.24188615 20.31230214 207.58777176 18.45703125 212.390625 C13.70464885 215.10627209 9.62533576 214.32261434 4.45703125 213.390625 C3.46703125 213.060625 2.47703125 212.730625 1.45703125 212.390625 C-0.53044928 207.95939713 -0.79150587 204.01990136 -0.78779602 199.206604 C-0.79006059 198.50616211 -0.79232517 197.80572021 -0.79465836 197.0840528 C-0.79993368 194.74897528 -0.79113997 192.4141657 -0.7824707 190.07910156 C-0.78358419 188.39988114 -0.78564294 186.72066111 -0.78857422 185.04144287 C-0.79329052 181.43033936 -0.7921824 177.81930091 -0.78679848 174.20819855 C-0.77917829 168.49208404 -0.7898565 162.77609438 -0.80400085 157.05999756 C-0.84170918 140.80724608 -0.85994039 124.5545511 -0.84838867 108.30175781 C-0.84216323 99.32147352 -0.85379896 90.34139095 -0.88483399 81.36115623 C-0.90344457 75.68533723 -0.90021135 70.01009158 -0.88066638 64.3342824 C-0.87375969 60.79372967 -0.88779084 57.25348428 -0.90761566 53.71298981 C-0.9126412 52.07883042 -0.90923454 50.44461846 -0.89648247 48.8105011 C-0.82467697 38.89950588 -1.21172375 30.18753601 -8.28368092 22.49786758 C-13.36518509 17.69478717 -18.85643637 15.26469424 -25.85546875 14.890625 C-35.36877321 15.21687001 -41.54464164 19.47937522 -47.16796875 26.9140625 Z " fill="#000000" transform="translate(237.54296875,6.609375)"/>
</svg>
